<svg width="165" height="36" viewBox="0 0 165 36" fill="none" xmlns="http://www.w3.org/2000/svg">
<path d="M0 5V18L11 31H21L0 5Z" fill="#FF4654"/>
<path d="M32.5 4V18.5L28 23H17L32.5 4Z" fill="#FF4654"/>
<path d="M51.94 9.56H60.34V12.464H56.236V17.36H59.812V20.36H56.236V29H51.94V9.56ZM62.3463 9.56H67.6983C69.8263 9.56 71.4343 9.936 72.5223 10.688C73.6103 11.44 74.1543 12.776 74.1543 14.696C74.1543 15.992 73.9863 17.024 73.6503 17.792C73.3143 18.56 72.6903 19.16 71.7783 19.592L74.4423 29H70.0023L67.8663 20.288H66.6423V29H62.3463V9.56ZM67.8423 17.816C68.7063 17.816 69.3063 17.592 69.6423 17.144C69.9943 16.68 70.1703 15.992 70.1703 15.08C70.1703 14.2 70.0103 13.544 69.6903 13.112C69.3703 12.664 68.8183 12.44 68.0343 12.44H66.6423V17.816H67.8423ZM76.7369 9.56H85.4729V12.488H81.0329V17.312H84.4169V20.288H81.0329V26.096H85.5209V29H76.7369V9.56ZM87.4713 9.56H96.2073V12.488H91.7673V17.312H95.1513V20.288H91.7673V26.096H96.2553V29H87.4713V9.56ZM97.7496 26.168L102.406 19.016L102.694 18.584C103.302 17.672 103.75 16.912 104.038 16.304C104.326 15.68 104.47 15.032 104.47 14.36C104.47 13.816 104.358 13.408 104.134 13.136C103.926 12.848 103.622 12.704 103.222 12.704C102.614 12.704 102.19 12.944 101.95 13.424C101.71 13.888 101.59 14.536 101.59 15.368V16.328H97.7016V15.296C97.7016 13.472 98.1416 12.016 99.0216 10.928C99.9176 9.84 101.294 9.296 103.15 9.296C104.862 9.296 106.166 9.744 107.062 10.64C107.974 11.536 108.43 12.8 108.43 14.432C108.43 15.168 108.31 15.864 108.07 16.52C107.846 17.176 107.574 17.768 107.254 18.296C106.934 18.824 106.438 19.576 105.766 20.552L102.214 25.856H107.902V29H97.7496V26.168ZM115.598 29.288C113.678 29.288 112.31 28.704 111.494 27.536C110.678 26.368 110.27 24.712 110.27 22.568V16.04C110.27 13.848 110.71 12.176 111.59 11.024C112.486 9.872 113.99 9.296 116.102 9.296C118.134 9.296 119.59 9.792 120.47 10.784C121.35 11.776 121.79 13.176 121.79 14.984V16.232H117.59V14.648C117.59 13.88 117.502 13.304 117.326 12.92C117.15 12.52 116.758 12.32 116.15 12.32C115.526 12.32 115.118 12.536 114.926 12.968C114.75 13.4 114.662 14 114.662 14.768V23.768C114.662 24.536 114.774 25.144 114.998 25.592C115.238 26.024 115.662 26.24 116.27 26.24C117.39 26.24 117.95 25.4 117.95 23.72V21.44H116.198V18.92H121.814V29H118.982L118.742 27.392C118.134 28.656 117.086 29.288 115.598 29.288ZM127.239 9.56H132.135L135.759 29H131.799L131.151 24.896H128.295L127.623 29H123.567L127.239 9.56ZM130.743 22.328L129.711 14.744L128.679 22.328H130.743ZM137.985 9.56H142.593L144.729 20.864L147.033 9.56H151.473L151.809 29H148.761L148.401 16.064L146.145 29H143.433L141.033 15.968L140.745 29H137.649L137.985 9.56ZM154.62 9.56H163.356V12.488H158.916V17.312H162.3V20.288H158.916V26.096H163.404V29H154.62V9.56Z" fill="white"/>
</svg>
